<mxfile host="app.diagrams.net" modified="2022-02-03T08:38:47.409Z" agent="5.0 (Windows NT 10.0; Win64; x64) AppleWebKit/537.36 (KHTML, like Gecko) Chrome/97.0.4692.99 Safari/537.36" etag="DHfLqe1DnrjD62B6eMqE" version="16.5.2" type="github">
  <diagram id="p2HajZ41j6ZCVXQFpqO8" name="Page-1">
    <mxGraphModel dx="942" dy="642" grid="1" gridSize="10" guides="1" tooltips="1" connect="1" arrows="1" fold="1" page="1" pageScale="1" pageWidth="1600" pageHeight="1200" math="0" shadow="0">
      <root>
        <mxCell id="0" />
        <mxCell id="1" parent="0" />
        <mxCell id="-XOdeHyJX4b31aOvF6B2-1" value="CIRLCES" style="ellipse;whiteSpace=wrap;html=1;aspect=fixed;rounded=0;fontSize=16;strokeColor=#000000;fillColor=#FFFFFF;" vertex="1" parent="1">
          <mxGeometry x="440" y="290" width="85" height="85" as="geometry" />
        </mxCell>
        <mxCell id="-XOdeHyJX4b31aOvF6B2-8" value="Sign in / Sign up" style="swimlane;fontStyle=0;childLayout=stackLayout;horizontal=1;startSize=30;horizontalStack=0;resizeParent=1;resizeParentMax=0;resizeLast=0;collapsible=1;marginBottom=0;" vertex="1" parent="1">
          <mxGeometry x="90" y="450" width="140" height="355" as="geometry" />
        </mxCell>
        <mxCell id="-XOdeHyJX4b31aOvF6B2-9" value="Första fönstret man får upp när man startar klienten. Här möts man av två fält för användarnamn och lösenord, samt två knappar. &#39;&#39;Log in&#39;&#39; eller &#39;&#39;Register&#39;&#39;. Klickar man login så kontrolleras uppgifterna mot databas/server. Klickar man register så ska man ange användarnamn och önskat lösenord. Sedan kontrolleras det att detta är tillgängligt och login fönstret stängs och vi hamnar i ett huvudfönster. (Där man landar när man är korrekt inloggad)&#xa;" style="text;strokeColor=none;fillColor=none;align=left;verticalAlign=middle;spacingLeft=4;spacingRight=4;overflow=hidden;points=[[0,0.5],[1,0.5]];portConstraint=eastwest;rotatable=0;whiteSpace=wrap;" vertex="1" parent="-XOdeHyJX4b31aOvF6B2-8">
          <mxGeometry y="30" width="140" height="325" as="geometry" />
        </mxCell>
        <mxCell id="UE1TaZcInzhewKq7OZas-3" value="My cicles&amp;nbsp;&lt;br&gt;" style="rounded=0;whiteSpace=wrap;html=1;" vertex="1" parent="1">
          <mxGeometry x="430" y="450" width="120" height="60" as="geometry" />
        </mxCell>
        <mxCell id="UE1TaZcInzhewKq7OZas-4" value="" style="endArrow=classic;html=1;rounded=0;exitX=1.007;exitY=0.133;exitDx=0;exitDy=0;exitPerimeter=0;" edge="1" parent="1" source="-XOdeHyJX4b31aOvF6B2-8">
          <mxGeometry width="50" height="50" relative="1" as="geometry">
            <mxPoint x="420" y="510" as="sourcePoint" />
            <mxPoint x="430" y="460" as="targetPoint" />
          </mxGeometry>
        </mxCell>
      </root>
    </mxGraphModel>
  </diagram>
</mxfile>
